<svg width="300" height="400" viewBox="0 0 300 400" fill="none" xmlns="http://www.w3.org/2000/svg">
<g clip-path="url(#clip0_84_373)">
<rect width="300" height="400" rx="12" fill="white"/>
<path d="M92.5 71C97.5 64.5 98.1667 57.6667 97.5 54C98.1667 56.6667 100.2 63.8 103 71C105.524 77.4903 110.404 79.051 113.173 79.0514C113.482 79.016 113.76 79 114 79C113.754 79.0329 113.476 79.0515 113.173 79.0514C110.694 79.336 106.201 80.8762 103 85.5C99.4 90.7 97.8333 99.6667 97.5 103.5C96.5 98.8333 94.75 90 92.5 85.5C90.25 81 84.8333 79.8333 82 79C83.1667 78.3333 88.003 76.8461 92.5 71Z" fill="#B7D2FD"/>
<path d="M208.5 141C213.5 134.5 214.167 127.667 213.5 124C214.167 126.667 216.2 133.8 219 141C221.524 147.49 226.404 149.051 229.173 149.051C229.482 149.016 229.76 149 230 149C229.754 149.033 229.476 149.051 229.173 149.051C226.694 149.336 222.201 150.876 219 155.5C215.4 160.7 213.833 169.667 213.5 173.5C212.5 168.833 210.75 160 208.5 155.5C206.25 151 200.833 149.833 198 149C199.167 148.333 204.003 146.846 208.5 141Z" fill="#FFC300"/>
<path d="M230.266 124.212C232.297 121.455 232.568 118.556 232.297 117C232.568 118.131 233.394 121.158 234.531 124.212C235.557 126.966 237.539 127.628 238.664 127.628C238.79 127.613 238.902 127.606 239 127.606C238.9 127.62 238.787 127.628 238.664 127.628C237.657 127.749 235.832 128.402 234.531 130.364C233.069 132.57 232.432 136.374 232.297 138C231.891 136.02 231.18 132.273 230.266 130.364C229.352 128.455 227.151 127.96 226 127.606C226.474 127.323 228.439 126.692 230.266 124.212Z" fill="#FFC300"/>
<path d="M195.609 82.1818C197.328 79.8182 197.557 77.3333 197.328 76C197.557 76.9697 198.256 79.5636 199.219 82.1818C200.086 84.5419 201.764 85.1094 202.716 85.1096C202.822 85.0967 202.917 85.0909 203 85.0909C202.915 85.1029 202.82 85.1096 202.716 85.1096C201.863 85.2131 200.319 85.7731 199.219 87.4545C197.981 89.3455 197.443 92.6061 197.328 94C196.984 92.303 196.383 89.0909 195.609 87.4545C194.836 85.8182 192.974 85.3939 192 85.0909C192.401 84.8485 194.064 84.3077 195.609 82.1818Z" fill="#FD3B31"/>
<path d="M85.6094 176.182C87.3281 173.818 87.5573 171.333 87.3281 170C87.5573 170.97 88.2562 173.564 89.2188 176.182C90.0864 178.542 91.764 179.109 92.7158 179.11C92.822 179.097 92.9175 179.091 93 179.091C92.9153 179.103 92.8199 179.11 92.7158 179.11C91.8635 179.213 90.3191 179.773 89.2188 181.455C87.9812 183.345 87.4427 186.606 87.3281 188C86.9844 186.303 86.3828 183.091 85.6094 181.455C84.8359 179.818 82.974 179.394 82 179.091C82.401 178.848 84.0635 178.308 85.6094 176.182Z" fill="#F79997"/>
<path d="M90.5938 144.899C92.7812 141.879 93.0729 138.704 92.7812 137C93.0729 138.239 93.9625 141.554 95.1875 144.899C96.2917 147.915 98.4269 148.64 99.6383 148.64C99.7735 148.624 99.895 148.616 100 148.616C99.8922 148.631 99.7708 148.64 99.6383 148.64C98.5535 148.772 96.588 149.488 95.1875 151.636C93.6125 154.053 92.9271 158.219 92.7812 160C92.3438 157.832 91.5781 153.727 90.5938 151.636C89.6094 149.545 87.2396 149.003 86 148.616C86.5104 148.306 88.6263 147.615 90.5938 144.899Z" fill="#2A35CD"/>
<circle cx="65" cy="131" r="3" fill="#FD3B31"/>
<circle cx="115" cy="179" r="3" fill="#F79997"/>
<circle cx="217" cy="183" r="3" fill="#FFC300"/>
<circle cx="150.5" cy="126.5" r="38.5" fill="#55C622"/>
<ellipse cx="150.5" cy="184.5" rx="18.5" ry="2.5" fill="#EEEEEE"/>
<path fill-rule="evenodd" clip-rule="evenodd" d="M169.214 112.729C171.573 115.057 171.598 118.856 169.271 121.214L150.521 140.214C149.392 141.358 147.852 142.001 146.246 142C144.639 141.999 143.1 141.353 141.973 140.208L132.723 130.808C130.399 128.446 130.43 124.648 132.792 122.323C135.154 119.999 138.952 120.03 141.277 122.392L146.256 127.452L160.729 112.786C163.057 110.427 166.856 110.402 169.214 112.729Z" fill="white"/>
<circle cx="287.488" cy="63.998" r="40.5854" transform="rotate(-32.3265 287.488 63.998)" fill="url(#paint0_linear_84_373)"/>
<circle cx="280.76" cy="377.76" r="71.578" transform="rotate(-32.3265 280.76 377.76)" fill="url(#paint1_linear_84_373)"/>
<circle cx="9.49994" cy="174.5" r="25.5" transform="rotate(90.1539 9.49994 174.5)" fill="url(#paint2_linear_84_373)"/>
<circle cx="38.0701" cy="41.0703" r="9.56815" transform="rotate(60 38.0701 41.0703)" fill="url(#paint3_linear_84_373)"/>
<circle cx="281.008" cy="228.007" r="13.9144" transform="rotate(60 281.008 228.007)" fill="url(#paint4_linear_84_373)"/>
<circle cx="40.0076" cy="321.007" r="13.9144" transform="rotate(60 40.0076 321.007)" fill="url(#paint5_linear_84_373)"/>
<circle cx="0.00756379" cy="291.007" r="13.9144" transform="rotate(60 0.00756379 291.007)" fill="url(#paint6_linear_84_373)"/>
</g>
<defs>
<linearGradient id="paint0_linear_84_373" x1="233.222" y1="17.0284" x2="287.488" y2="104.583" gradientUnits="userSpaceOnUse">
<stop stop-color="#FFC8C8"/>
<stop offset="1" stop-color="white" stop-opacity="0"/>
</linearGradient>
<linearGradient id="paint1_linear_84_373" x1="185.055" y1="294.923" x2="280.76" y2="449.338" gradientUnits="userSpaceOnUse">
<stop stop-color="#FFC8C8"/>
<stop offset="1" stop-color="white" stop-opacity="0"/>
</linearGradient>
<linearGradient id="paint2_linear_84_373" x1="-24.5956" y1="144.989" x2="9.49994" y2="200" gradientUnits="userSpaceOnUse">
<stop stop-color="#FFC8C8"/>
<stop offset="1" stop-color="white" stop-opacity="0"/>
</linearGradient>
<linearGradient id="paint3_linear_84_373" x1="25.2767" y1="29.9971" x2="38.0701" y2="50.6385" gradientUnits="userSpaceOnUse">
<stop stop-color="#FFC8C8"/>
<stop offset="1" stop-color="white" stop-opacity="0"/>
</linearGradient>
<linearGradient id="paint4_linear_84_373" x1="262.403" y1="211.904" x2="281.008" y2="241.922" gradientUnits="userSpaceOnUse">
<stop stop-color="#FFC8C8"/>
<stop offset="1" stop-color="white" stop-opacity="0"/>
</linearGradient>
<linearGradient id="paint5_linear_84_373" x1="21.4029" y1="304.904" x2="40.0076" y2="334.922" gradientUnits="userSpaceOnUse">
<stop stop-color="#FFC8C8"/>
<stop offset="1" stop-color="white" stop-opacity="0"/>
</linearGradient>
<linearGradient id="paint6_linear_84_373" x1="-18.5971" y1="274.904" x2="0.00756359" y2="304.922" gradientUnits="userSpaceOnUse">
<stop stop-color="#FFC8C8"/>
<stop offset="1" stop-color="white" stop-opacity="0"/>
</linearGradient>
<clipPath id="clip0_84_373">
<rect width="300" height="400" rx="12" fill="white"/>
</clipPath>
</defs>
</svg>
